<svg width="210" height="99" viewBox="0 0 210 99" fill="none" xmlns="http://www.w3.org/2000/svg">
<path d="M209.191 84.6501C209.211 84.0792 209.104 83.5287 208.951 82.9832C208.35 80.9085 207.106 79.3894 205.062 78.6044C203.828 78.1303 202.544 78.059 201.249 78.2629C199.516 78.5382 198.094 79.3589 197.013 80.7505C196.728 81.1175 196.498 81.5151 196.284 81.928C196.146 81.8567 196.131 81.719 196.08 81.612C195.545 80.5262 194.785 79.6494 193.74 79.0326C192.583 78.3445 191.319 78.1049 189.983 78.1813C187.674 78.3139 185.895 79.3334 184.738 81.3673C184.697 81.4336 184.692 81.5406 184.539 81.5457C184.539 81.2959 184.539 81.0513 184.539 80.8015C184.534 80.2866 184.549 79.7718 184.514 79.262C184.488 78.844 184.223 78.6146 183.805 78.5738C183.729 78.5687 183.652 78.5687 183.581 78.5687C182.465 78.5687 181.348 78.5687 180.232 78.5687C179.539 78.5687 179.279 78.8287 179.263 79.5169C179.263 79.5526 179.263 79.5933 179.263 79.629C179.263 85.583 179.263 91.5369 179.263 97.496C179.263 97.6591 179.268 97.8222 179.304 97.9803C179.391 98.332 179.625 98.541 179.987 98.5818C180.064 98.592 180.135 98.5869 180.211 98.5869C181.338 98.5869 182.47 98.5869 183.596 98.5869C183.657 98.5869 183.724 98.5869 183.785 98.5818C184.198 98.5461 184.458 98.3065 184.509 97.8987C184.534 97.7152 184.534 97.5215 184.534 97.338C184.534 93.6881 184.534 90.0434 184.534 86.3935C184.534 85.9398 184.544 85.4912 184.651 85.0477C184.957 83.7581 185.712 82.8864 187.006 82.5143C187.46 82.3868 187.919 82.3715 188.388 82.3919C189.912 82.4684 191.044 83.3808 191.426 84.854C191.548 85.3179 191.584 85.792 191.584 86.2712C191.579 89.9924 191.589 93.7187 191.574 97.4399C191.569 98.1536 191.768 98.6277 192.706 98.592C193.547 98.5614 194.388 98.5869 195.229 98.5869C195.504 98.5869 195.779 98.592 196.055 98.5818C196.559 98.5614 196.845 98.2963 196.896 97.7967C196.911 97.6744 196.901 97.547 196.901 97.4195C196.901 93.7085 196.901 89.9975 196.901 86.2864C196.901 85.899 196.906 85.5116 196.993 85.1293C197.268 83.8753 197.951 82.9679 199.205 82.555C199.725 82.3817 200.265 82.3613 200.806 82.397C202.253 82.4837 203.359 83.3757 203.762 84.7725C203.91 85.2822 203.941 85.8073 203.941 86.3374C203.941 90.023 203.941 93.7085 203.941 97.394C203.941 97.5928 203.935 97.7968 203.986 97.9905C204.053 98.2504 204.211 98.4288 204.466 98.5257C204.624 98.5869 204.787 98.5869 204.95 98.5869C206.056 98.5869 207.157 98.5869 208.263 98.5869C208.375 98.5869 208.493 98.592 208.6 98.5665C208.911 98.4951 209.166 98.3524 209.191 97.9854L209.227 97.9752L209.262 97.9803C209.262 93.5403 209.262 89.1054 209.262 84.6654C209.237 84.6603 209.217 84.6552 209.191 84.6501Z" fill="white"/>
<path d="M61.5197 81.1634C59.812 79.1957 57.6456 78.2017 55.0407 78.1711C52.9711 78.1456 51.1207 78.7675 49.4946 80.0521C48.9134 80.5109 48.4088 81.0563 47.95 81.6375C47.9245 81.6324 47.8939 81.6273 47.8684 81.6171C47.8684 81.4845 47.8684 81.352 47.8684 81.2195C47.8684 78.686 47.8684 76.1525 47.8684 73.619C47.8684 72.8798 47.8735 72.1407 47.8684 71.4016C47.8633 70.7338 47.5881 70.4585 46.9305 70.4534C45.7886 70.4483 44.6468 70.4534 43.5049 70.4534C43.4285 70.4534 43.352 70.4534 43.2806 70.4687C42.8626 70.535 42.6434 70.7745 42.6078 71.1976C42.5976 71.32 42.5976 71.4474 42.5976 71.5749C42.5976 80.2 42.5976 88.825 42.5976 97.4552C42.5976 97.603 42.5976 97.7559 42.618 97.9038C42.6689 98.2912 42.9187 98.5359 43.3112 98.5817C43.3877 98.5919 43.4591 98.5868 43.5355 98.5868C44.6621 98.5868 45.7937 98.5868 46.9203 98.5868C46.9968 98.5868 47.0732 98.5868 47.1446 98.5817C47.5014 98.541 47.7359 98.332 47.8226 97.9802C47.8583 97.8324 47.8633 97.6846 47.8633 97.5317C47.8633 96.9556 47.8633 96.3796 47.8633 95.8036C47.8633 95.6965 47.843 95.5844 47.9092 95.4468C48.0774 95.6507 48.2202 95.8342 48.3782 96.0126C49.8718 97.705 51.7375 98.6684 53.9855 98.908C55.6065 99.0762 57.1613 98.857 58.6396 98.1638C60.8163 97.1493 62.2844 95.4518 63.1662 93.2497C64.1909 90.6907 64.2928 88.0553 63.6505 85.3893C63.2733 83.8141 62.5851 82.3868 61.5197 81.1634ZM58.1247 91.1903C57.1715 93.423 54.9337 94.6464 52.5225 94.3253C50.3612 94.0347 48.4496 92.4596 47.9704 89.819C47.8939 89.3959 47.8735 88.9729 47.8684 88.3662C47.8582 87.724 47.9806 86.9185 48.2966 86.159C49.1479 84.0945 50.6823 82.9322 52.9303 82.764C55.0662 82.6009 56.988 83.6816 57.9616 85.5881C58.2471 86.1488 58.4408 86.7452 58.5478 87.3671C58.7619 88.6721 58.6498 89.9567 58.1247 91.1903Z" fill="white"/>
<path d="M81.1657 79.3334C77.6076 77.641 73.9935 77.7073 70.4812 79.4914C68.1313 80.6842 66.5561 82.606 65.7201 85.1089C65.1237 86.8931 65.0166 88.7231 65.3531 90.5633C65.9138 93.6422 67.5399 96.0024 70.2824 97.5266C72.8414 98.9488 75.589 99.2801 78.4385 98.6837C80.9261 98.1587 83.0008 96.9149 84.6117 94.937C85.2234 94.1826 85.7077 93.3517 86.0594 92.4443C86.2735 91.8938 86.0543 91.5318 85.4732 91.4554C85.412 91.4452 85.3457 91.4452 85.2846 91.4452C84.0815 91.4452 82.8785 91.4452 81.6704 91.4452C81.5328 91.4452 81.3951 91.4656 81.2626 91.5064C81.0587 91.5624 80.9108 91.6746 80.8038 91.8632C79.667 93.8971 77.3222 95.0746 74.7377 94.5241C72.6018 94.0704 70.8279 92.2761 70.4303 90.1096C70.5934 90.0637 70.7463 90.0841 70.8941 90.0841C75.7725 90.0841 80.6509 90.0841 85.5292 90.0841C85.6822 90.0841 85.83 90.0892 85.9778 90.0739C86.4264 90.028 86.6558 89.814 86.7272 89.3705C86.7578 89.1717 86.7781 88.9729 86.7832 88.7741C86.7934 88.0094 86.7323 87.2448 86.5793 86.4954C85.9319 83.2279 84.1682 80.7607 81.1657 79.3334ZM70.7055 86.1641C71.1082 84.6552 73.0198 82.4123 76.0835 82.4633C77.5566 82.4888 78.8565 82.9475 79.9831 83.9008C80.7018 84.5074 81.232 85.2465 81.5786 86.1641C77.9186 86.1641 74.3146 86.1641 70.7055 86.1641Z" fill="white"/>
<path d="M171.76 79.4761C168.507 77.7174 164.134 77.7123 160.861 79.4251C158.486 80.6689 156.854 82.5652 156.003 85.1089C155.391 86.9389 155.284 88.8148 155.662 90.7111C156.253 93.7136 157.848 96.0381 160.535 97.5062C163.792 99.2852 167.208 99.4585 170.653 98.0771C173.161 97.0729 175.027 95.3346 176.174 92.8623C176.251 92.6941 176.327 92.5208 176.388 92.3424C176.531 91.9142 176.358 91.6083 175.919 91.4911C175.782 91.4554 175.649 91.4503 175.511 91.4503C174.359 91.4503 173.202 91.4503 172.05 91.4503C171.913 91.4503 171.775 91.4554 171.637 91.486C171.393 91.542 171.219 91.6644 171.082 91.8887C169.772 94.0755 167.452 95.0645 164.965 94.5088C162.844 94.0347 161.111 92.2455 160.723 90.1147C160.887 90.0586 161.034 90.0841 161.187 90.0841C166.066 90.0841 170.944 90.0841 175.822 90.0841C175.975 90.0841 176.123 90.0892 176.276 90.0739C176.704 90.0331 176.939 89.8242 177.025 89.4113C177.056 89.2787 177.061 89.136 177.061 88.9984C177.082 88.2082 177.051 87.4181 176.903 86.6382C176.307 83.442 174.624 81.0207 171.76 79.4761ZM160.948 86.159C161.269 85.3128 161.748 84.5992 162.39 83.9925C163.338 83.1005 164.465 82.5856 165.755 82.4888C168.523 82.2849 171.27 83.9467 171.826 86.159C168.217 86.159 164.613 86.159 160.948 86.159Z" fill="white"/>
<path d="M150.595 79.6035C148.907 78.3393 146.985 77.9672 144.931 78.2476C142.811 78.5381 141.164 79.6035 139.987 81.3928C139.951 81.4437 139.915 81.4896 139.879 81.5406C139.854 81.5355 139.829 81.5253 139.803 81.5202C139.803 81.3979 139.803 81.2755 139.803 81.1583C139.803 77.9723 139.803 74.7914 139.803 71.6055C139.803 71.4678 139.808 71.3302 139.798 71.1926C139.767 70.8102 139.553 70.5655 139.181 70.484C139.059 70.4585 138.931 70.4534 138.809 70.4534C137.718 70.4534 136.627 70.4534 135.536 70.4534C135.485 70.4534 135.434 70.4534 135.383 70.4534C134.863 70.4789 134.578 70.7542 134.537 71.2741C134.527 71.3761 134.532 71.4729 134.532 71.5749C134.532 80.1999 134.532 88.825 134.532 97.4501C134.532 97.6387 134.527 97.8273 134.583 98.0108C134.68 98.3422 134.909 98.541 135.256 98.5767C135.332 98.5869 135.404 98.5817 135.48 98.5817C136.607 98.5817 137.739 98.5817 138.865 98.5817C138.942 98.5817 139.018 98.5818 139.089 98.5767C139.472 98.5308 139.737 98.2861 139.783 97.8987C139.803 97.7355 139.798 97.5724 139.798 97.4093C139.798 93.999 139.798 90.5888 139.798 87.1785C139.798 86.8013 139.808 86.4241 139.859 86.0519C140.078 84.538 140.797 83.3706 142.235 82.7283C142.923 82.4174 143.657 82.3358 144.406 82.3919C146.063 82.5193 147.22 83.3451 147.852 84.8897C148.112 85.5269 148.199 86.1947 148.199 86.8777C148.199 90.39 148.199 93.8971 148.199 97.4093C148.199 97.5469 148.194 97.6846 148.204 97.8222C148.239 98.2606 148.51 98.5308 148.948 98.5767C149.009 98.5818 149.075 98.5817 149.137 98.5817C150.279 98.5817 151.42 98.5817 152.562 98.5817C152.613 98.5817 152.664 98.5818 152.715 98.5767C153.169 98.541 153.454 98.2606 153.49 97.8069C153.5 97.7203 153.495 97.6336 153.495 97.5419C153.495 93.6932 153.495 89.8445 153.495 85.9959C153.495 85.2516 153.419 84.5176 153.245 83.7988C152.843 82.1064 152.007 80.6638 150.595 79.6035Z" fill="white"/>
<path d="M33.9011 78.9358C31.4951 77.9876 29.0075 77.9265 26.5097 78.5484C24.4349 79.0632 22.661 80.1082 21.2541 81.7292C19.5515 83.6918 18.8174 86.0112 18.7818 88.7078C18.797 88.9831 18.8123 89.3858 18.8531 89.7834C18.8786 90.0688 18.9296 90.3543 18.9806 90.6398C19.5923 93.7901 21.2745 96.1859 24.1342 97.654C27.3304 99.2954 30.6591 99.4076 34.0031 98.1434C36.6844 97.1341 38.5858 95.2582 39.6563 92.5921C40.4311 90.6602 40.6044 88.6466 40.2221 86.6076C39.5288 82.8966 37.4083 80.3223 33.9011 78.9358ZM33.7686 92.3576C32.8102 93.6066 31.5206 94.2641 29.9658 94.3559C27.0653 94.5292 24.7816 92.6635 24.3279 89.7885C24.0832 88.2337 24.2259 86.7299 25.0314 85.3485C26.112 83.4981 27.7637 82.6672 29.8944 82.7538C32.3922 82.8507 34.4262 84.6348 34.8748 87.3977C34.9359 87.7851 34.9563 88.1675 34.9614 88.7435C34.9665 89.9516 34.625 91.2413 33.7686 92.3576Z" fill="white"/>
<path d="M14.4335 88.0553C13.5466 87.6016 12.6035 87.2958 11.6401 87.0766C10.5543 86.8319 9.45831 86.628 8.36743 86.3884C7.65887 86.2304 6.95541 86.0316 6.3437 85.6187C5.62495 85.1344 5.34458 84.3494 5.57397 83.5134C5.78297 82.7589 6.32331 82.3154 7.02168 82.0453C7.80161 81.7394 8.61722 81.7037 9.42773 81.8516C10.59 82.0657 11.4158 82.6927 11.7879 83.8549C11.9255 84.2831 12.2773 84.5227 12.7309 84.5227C13.7861 84.5278 14.8362 84.5329 15.8914 84.5227C16.549 84.5176 16.8294 84.1658 16.7071 83.5287C16.4879 82.3919 15.9781 81.403 15.1676 80.5721C14.1939 79.578 13.0062 78.9612 11.6809 78.584C10.0394 78.1201 8.36744 78.0692 6.68524 78.3037C5.52299 78.4617 4.40663 78.8032 3.38712 79.3996C1.67434 80.3988 0.542678 81.8108 0.364263 83.8396C0.236824 85.272 0.588554 86.577 1.57748 87.6628C2.08214 88.2184 2.69385 88.6262 3.36163 88.9576C4.21802 89.3807 5.13048 89.661 6.06334 89.8598C7.20519 90.0994 8.35214 90.2931 9.47361 90.6194C10.1006 90.8029 10.7174 91.017 11.2527 91.4095C12.2212 92.113 12.3384 93.3466 11.5228 94.2284C11.1915 94.5904 10.7837 94.8249 10.3249 94.9778C9.40734 95.2836 8.47448 95.3142 7.54163 95.0848C6.40997 94.8045 5.58926 94.1469 5.16617 93.0407C5.02343 92.6635 4.74307 92.4902 4.35565 92.4902C3.75414 92.4851 3.15263 92.4902 2.55112 92.4902C2.55112 92.4902 2.55112 92.4902 2.55112 92.4851C2.27585 92.4851 2.00058 92.4851 1.72531 92.4851C1.40926 92.4851 1.09831 92.48 0.782263 92.4902C0.16036 92.5106 -0.0690299 92.8011 0.0176286 93.4179C0.0278238 93.4791 0.0431163 93.5403 0.0533114 93.6014C0.323482 94.8452 0.960676 95.8699 1.90373 96.7161C2.89265 97.603 4.06 98.1688 5.33439 98.5206C7.1899 99.0303 9.0709 99.0966 10.9621 98.7959C12.1702 98.6021 13.3274 98.2351 14.3877 97.6081C15.2899 97.078 16.0495 96.4051 16.6102 95.513C17.7571 93.6881 17.6654 91.226 16.3859 89.6151C15.866 88.927 15.188 88.4427 14.4335 88.0553Z" fill="white"/>
<path d="M132.947 79.313C132.921 78.8644 132.661 78.6044 132.208 78.5738C132.095 78.5636 131.983 78.5687 131.871 78.5687C130.867 78.5687 129.863 78.5687 128.864 78.5687C128.757 78.5687 128.639 78.5993 128.532 78.5279C128.476 78.3954 128.507 78.2578 128.502 78.1201C128.502 76.856 128.502 75.5867 128.502 74.3225C128.502 73.6394 128.237 73.3488 127.559 73.3386C126.417 73.3233 125.275 73.3284 124.133 73.3386C123.476 73.3437 123.2 73.6343 123.185 74.2868C123.185 74.3734 123.185 74.4601 123.185 74.5519C123.185 75.7447 123.185 76.9324 123.185 78.1253C123.185 78.2578 123.21 78.4005 123.149 78.533C123.032 78.6044 122.905 78.5687 122.782 78.5738C121.982 78.5789 121.177 78.5687 120.376 78.5789C119.734 78.584 119.469 78.8542 119.464 79.5016C119.459 80.3274 119.459 81.1583 119.464 81.9841C119.464 82.6672 119.739 82.9424 120.417 82.9475C121.217 82.9526 122.023 82.9475 122.823 82.9526C122.93 82.9526 123.047 82.9221 123.149 82.9985C123.2 83.1413 123.175 83.2942 123.175 83.442C123.175 88.091 123.175 92.7451 123.175 97.394C123.175 97.5673 123.17 97.7458 123.205 97.9191C123.282 98.3116 123.516 98.541 123.914 98.5869C124.026 98.6021 124.138 98.597 124.25 98.597C125.255 98.597 126.259 98.597 127.258 98.597C127.411 98.597 127.559 98.6022 127.712 98.592C128.165 98.5614 128.451 98.281 128.486 97.8273C128.497 97.6897 128.492 97.5521 128.492 97.4144C128.492 92.7654 128.492 88.1114 128.492 83.4624C128.492 83.3146 128.492 83.1616 128.492 82.9526C128.66 82.9526 128.782 82.9526 128.904 82.9526C129.96 82.9526 131.01 82.9577 132.065 82.9526C132.661 82.9475 132.937 82.6723 132.942 82.0708C132.947 81.3928 132.942 80.7148 132.942 80.0419C132.952 79.787 132.962 79.5475 132.947 79.313Z" fill="white"/>
<path d="M101.49 82.3461C101.5 81.821 101.495 81.2909 101.49 80.7658C101.49 80.0878 101.5 79.4098 101.485 78.737C101.469 78.1762 101.143 77.9214 100.593 77.9978C99.833 78.0998 99.0938 78.2884 98.3904 78.6095C96.596 79.42 95.3522 80.7811 94.4856 82.5194C94.4245 82.6366 94.3684 82.7589 94.3072 82.8762C94.2868 82.8711 94.2614 82.866 94.241 82.8558C94.241 82.2798 94.241 81.7038 94.241 81.1277C94.241 80.5619 94.2461 80.0012 94.2359 79.4353C94.2257 78.8593 93.9453 78.584 93.3795 78.5688C93.3183 78.5688 93.252 78.5688 93.1909 78.5688C92.1255 78.5688 91.0601 78.584 89.9947 78.5637C89.3575 78.5484 88.9548 78.7625 88.9599 79.6036C88.9803 82.2492 88.9701 84.8948 88.9701 87.5405C88.9701 90.8896 88.9752 94.2336 88.965 97.5827C88.965 98.1995 89.225 98.6277 89.9947 98.5971C90.8103 98.5665 91.6259 98.592 92.4415 98.592C92.7678 98.592 93.094 98.5971 93.4203 98.5869C93.8892 98.5716 94.1696 98.3218 94.2308 97.863C94.2512 97.7254 94.241 97.5878 94.241 97.4501C94.241 94.6312 94.2461 91.8071 94.241 88.9882C94.241 88.3459 94.3174 87.7138 94.5162 87.1021C95.0362 85.5167 96.1424 84.4921 97.6461 83.8498C98.6249 83.4318 99.6648 83.2636 100.715 83.182C101.245 83.1311 101.479 82.8813 101.49 82.3461Z" fill="white"/>
<path d="M111.405 90.5582C110.548 90.0841 109.61 89.9414 108.637 90.0637C106.99 90.2676 105.746 91.0781 105.124 92.638C104.492 94.2233 104.655 95.7679 105.721 97.1493C106.439 98.0822 107.439 98.5512 108.591 98.6888C111.343 99.0151 113.617 97.1952 113.596 93.943C113.556 92.6992 112.898 91.3789 111.405 90.5582ZM111.721 96.8843C110.66 97.9853 109.34 98.1841 107.948 97.705C106.577 97.2309 105.904 96.1706 105.756 94.7484C105.746 94.626 105.741 94.4986 105.731 94.2998C105.782 92.8878 106.368 91.7204 107.78 91.1138C109.58 90.339 112.052 91.0781 112.572 93.5301C112.837 94.7739 112.628 95.9412 111.721 96.8843Z" fill="white"/>
<path d="M104.197 90.181C104.008 90.181 103.819 90.1861 103.631 90.181C103.412 90.1708 103.182 90.2268 102.953 90.1351C102.953 89.5438 102.922 88.9524 102.963 88.3713C103.014 87.6882 103.559 87.3008 104.258 87.3926C104.63 87.4436 104.635 87.4436 104.635 87.0663C104.635 87.0409 104.635 87.0154 104.635 86.9899C104.63 86.6738 104.625 86.6687 104.299 86.6127C103.095 86.4139 102.091 87.2397 102.04 88.4835C102.02 88.9473 102.04 89.4112 102.035 89.8751C102.035 89.972 102.066 90.079 101.974 90.1606C101.78 90.2013 101.582 90.181 101.383 90.181C100.735 90.1861 100.705 90.2166 100.832 90.9048C101.204 91.0221 101.612 90.8997 102.04 90.9813C102.04 91.1393 102.04 91.2871 102.04 91.435C102.04 93.6422 102.04 95.8444 102.04 98.0516C102.04 98.1637 102.04 98.2759 102.05 98.388C102.061 98.5002 102.117 98.5817 102.239 98.5817C102.458 98.5766 102.688 98.6327 102.948 98.5155C102.948 96.0126 102.948 93.5046 102.948 91.017C103.116 90.9303 103.243 90.9609 103.366 90.9558C103.692 90.9507 104.018 90.9558 104.344 90.9558C104.462 90.9558 104.574 90.9456 104.625 90.8182C104.773 90.4409 104.599 90.181 104.197 90.181Z" fill="white"/>
<path d="M118.816 90.0178C117.567 90.1198 116.594 90.6652 116.002 91.8071C115.957 91.8989 115.946 92.0212 115.783 92.0926C115.783 91.4605 115.783 90.8589 115.783 90.2523C115.533 90.1402 115.304 90.1759 115.085 90.1861C114.952 90.1912 114.891 90.2829 114.886 90.4155C114.886 90.4919 114.886 90.5633 114.886 90.6398C114.886 93.1325 114.886 95.6252 114.886 98.1179C114.886 98.2045 114.886 98.2912 114.891 98.3829C114.906 98.5461 115.019 98.597 115.156 98.5767C115.365 98.541 115.615 98.699 115.768 98.4441C115.793 98.4033 115.783 98.3473 115.783 98.2963C115.783 98.2198 115.783 98.1485 115.783 98.072C115.783 96.8588 115.788 95.6405 115.783 94.4272C115.783 94.101 115.809 93.7747 115.855 93.4536C116.033 92.1894 116.808 91.333 118.047 91.0323C118.291 90.9711 118.541 90.9456 118.786 90.915C119.143 90.8793 119.153 90.8742 119.158 90.5021C119.158 90.441 119.158 90.3747 119.158 90.3135C119.148 90.0331 119.112 89.9924 118.816 90.0178Z" fill="white"/>
<path d="M118.179 0C118.215 0.0407805 118.256 0.0560679 118.307 0.066263C119.642 0.270166 120.708 1.53437 120.692 2.97188C120.662 5.72966 120.682 8.48744 120.682 11.2452C120.682 16.2612 120.677 21.2721 120.687 26.2881C120.692 28.0978 120.539 29.887 120.142 31.6559C119.494 34.5309 118.21 37.095 116.37 39.3889C115.401 40.5919 114.325 41.6981 113.25 42.7991C112.327 43.7371 111.399 44.6699 110.579 45.7048C109.702 46.816 109.004 48.0241 108.662 49.4158C108.479 50.1651 108.438 50.9246 108.422 51.6893C108.407 52.5151 108.422 53.346 108.417 54.1718C108.417 54.2941 108.438 54.4216 108.392 54.5439C108.132 54.6306 101.612 54.6663 100.888 54.5847C100.776 54.4726 100.817 54.3298 100.817 54.1973C100.812 53.2593 100.807 52.3163 100.817 51.3783C100.832 50.0275 100.445 48.7837 99.8229 47.6061C99.1296 46.3012 98.212 45.1593 97.2537 44.048C96.0048 42.5952 94.6947 41.1934 93.4968 39.6896C91.9471 37.7475 90.632 35.6727 89.7654 33.3279C89.1791 31.7323 88.807 30.0909 88.6541 28.3985C88.598 27.7613 88.5776 27.1241 88.5776 26.4869C88.5725 18.6673 88.5776 10.8425 88.5725 3.02285C88.5725 1.96256 88.9753 1.12656 89.8418 0.525048C90.163 0.300756 90.5249 0.152929 90.9123 0.0815629C90.999 0.0662702 91.0907 0.0662627 91.1621 0.0101895C91.3864 0.0101895 91.6158 0.0101895 91.8401 0.0101895C91.8911 0.0815554 91.9726 0.0713649 92.044 0.0866576C92.569 0.198804 93.038 0.433294 93.4254 0.805416C94.0371 1.38654 94.3379 2.10019 94.3379 2.95149C94.3328 7.47812 94.3379 12.0048 94.3328 16.5314C94.3328 17.0208 94.3532 17.5101 94.4194 17.9944C94.6794 19.9774 95.4135 21.7717 96.7286 23.2959C99.2927 26.2626 102.535 27.4861 106.414 26.8642C109.039 26.4411 111.16 25.1004 112.786 23.0002C114.239 21.1345 114.922 18.9986 114.937 16.6384C114.942 15.6495 114.937 14.6555 114.937 13.6666C114.937 10.083 114.947 6.49429 114.932 2.9107C114.927 1.63122 115.829 0.356826 117.267 0.0764603C117.328 0.0662652 117.389 0.061168 117.43 0.00509476C117.68 -2.80006e-06 117.929 0 118.179 0Z" fill="#5A9BD5"/>
<path d="M100.883 56.9653C103.371 56.9653 105.874 56.9653 108.366 56.9653C108.422 57.001 108.438 57.0468 108.438 57.0978C108.428 58.051 108.489 58.9992 108.402 59.9524C108.254 61.5888 106.924 62.9804 105.293 63.2811C103.442 63.6227 101.357 62.4451 100.909 60.3093C100.853 60.0544 100.827 59.7893 100.822 59.5293C100.812 58.7545 100.817 57.9746 100.817 57.1998C100.822 57.1182 100.812 57.0417 100.883 56.9653Z" fill="#EB4E77"/>
<path d="M110.757 16.0318C110.793 19.3657 107.984 22.1642 104.589 22.1438C101.51 22.1285 98.4873 19.6715 98.4975 15.986C98.5077 12.5196 101.286 9.8485 104.671 9.87399C108.295 9.90458 110.818 12.9019 110.757 16.0318Z" fill="#EB4E77"/>
</svg>
